<svg xmlns="http://www.w3.org/2000/svg" viewBox="0 0 1440 320">
    <defs>
        <linearGradient id="sw-gradient-0" x1="0" x2="0" y1="1" y2="0">
            <stop stop-color="rgba(13, 24, 40, 1)" offset="0%"></stop>
            <stop stop-color="rgba(13, 21, 35, 1)" offset="100%"></stop>
        </linearGradient>
    </defs>
  <path fill="url(#sw-gradient-0)" fill-opacity="1" d="M0,128L48,144C96,160,192,192,288,208C384,224,480,224,576,197.3C672,171,768,117,864,90.7C960,64,1056,64,1152,96C1248,128,1344,192,1392,224L1440,256L1440,320L1392,320C1344,320,1248,320,1152,320C1056,320,960,320,864,320C768,320,672,320,576,320C480,320,384,320,288,320C192,320,96,320,48,320L0,320Z"></path>
</svg>